<svg width="21" height="16" viewBox="0 0 21 16" fill="none" xmlns="http://www.w3.org/2000/svg">
<path d="M17.3984 1.44922C17.3984 1.44922 17.3984 1.44922 17.3652 1.44922C16.1035 0.851562 14.7754 0.453125 13.4141 0.220703C13.3809 0.1875 13.3477 0.220703 13.3477 0.220703C13.1484 0.552734 12.9824 0.917969 12.8496 1.25C11.3555 1.01758 9.86133 1.01758 8.36719 1.25C8.23438 0.917969 8.06836 0.552734 7.86914 0.220703C7.86914 0.220703 7.83594 0.1875 7.80273 0.220703C6.44141 0.453125 5.11328 0.851562 3.85156 1.44922C3.81836 1.44922 3.81836 1.44922 3.81836 1.44922C1.29492 5.23438 0.597656 8.91992 0.929688 12.5723C0.929688 12.5723 0.929688 12.6055 0.962891 12.6055C2.42383 13.7012 4.08398 14.5312 5.84375 15.0625C5.84375 15.0957 5.87695 15.0625 5.91016 15.0625C6.27539 14.5312 6.60742 14 6.90625 13.4355C6.90625 13.4023 6.90625 13.3691 6.87305 13.3359C6.3418 13.1367 5.81055 12.9043 5.3457 12.6055C5.3125 12.6055 5.2793 12.5391 5.3457 12.5059C5.44531 12.4395 5.54492 12.373 5.64453 12.2734C5.64453 12.2734 5.67773 12.2734 5.71094 12.2734C8.89844 13.7344 12.3516 13.7344 15.5059 12.2734C15.5391 12.2734 15.5391 12.2734 15.5723 12.2734C15.6719 12.373 15.7715 12.4395 15.8711 12.5059C15.9043 12.5391 15.9043 12.6055 15.8711 12.6055C15.373 12.9043 14.875 13.1367 14.3438 13.3359C14.3105 13.3691 14.3105 13.4023 14.3105 13.4355C14.6094 14 14.9414 14.5312 15.3066 15.0625C15.3398 15.0625 15.3398 15.0957 15.373 15.0625C17.1328 14.5312 18.793 13.7012 20.2539 12.6055C20.2871 12.6055 20.2871 12.5723 20.2871 12.5723C20.6855 8.35547 19.5898 4.70312 17.3984 1.44922ZM7.37109 10.3477C6.4082 10.3477 5.61133 9.45117 5.61133 8.38867C5.61133 7.29297 6.4082 6.42969 7.37109 6.42969C8.36719 6.42969 9.13086 7.29297 9.13086 8.38867C9.13086 9.45117 8.33398 10.3477 7.37109 10.3477ZM13.8457 10.3477C12.8828 10.3477 12.1191 9.45117 12.1191 8.38867C12.1191 7.29297 12.8828 6.42969 13.8457 6.42969C14.8418 6.42969 15.6387 7.29297 15.6055 8.38867C15.6055 9.45117 14.8418 10.3477 13.8457 10.3477Z" fill="#344253"/>
</svg>
