<svg width="20" height="13" viewBox="0 0 20 13" fill="none" xmlns="http://www.w3.org/2000/svg">
<path d="M0 5.03125V13H9.5625V5.03125C9.5625 2.4082 7.4043 0.25 4.78125 0.25C2.125 0.25 0 2.4082 0 5.03125ZM2.125 4.5H2.65625H6.90625H7.4375V5.5625H6.90625H2.65625H2.125V4.5ZM10.625 13H19.125V5.03125C19.125 2.4082 16.9668 0.25 14.3438 0.25H8.13477C9.62891 1.3125 10.625 3.07227 10.625 5.03125V13ZM12.75 4.5H13.2812H15.4062H16.4688H17V5.03125V7.15625V7.6875H16.4688H15.4062H14.875V7.15625V5.5625H13.2812H12.75V4.5Z" fill="#344253"/>
</svg>
