<svg width="1920" height="890" viewBox="0 0 1920 890" fill="none" xmlns="http://www.w3.org/2000/svg">
<g opacity="0.06">
<path opacity="0.7" d="M645.655 -103.797L-80.4817 -103.797L31.2844 90.5788L329.429 175.546L254.817 479.331L366.583 673.706L729.908 41.8362C767.164 -22.9556 720.395 -103.797 645.655 -103.797Z" stroke="#344253" stroke-width="2"/>
<path d="M738.602 -154L12.465 -154L124.231 40.3759L422.376 125.343L347.763 429.128L459.53 623.503L822.855 -8.36667C860.11 -73.1585 813.341 -154 738.602 -154Z" stroke="#344253" stroke-width="2"/>
<path d="M-460.136 740.932L-97.067 112.079L15.3844 306.059L-60.1041 606.743L240.287 694.02L352.739 888L-376.14 886.714C-450.879 886.582 -497.505 805.658 -460.136 740.932Z" stroke="#344253" stroke-width="2"/>
</g>
<g opacity="0.06">
<path opacity="0.7" d="M1255.88 -103.797L1982.02 -103.797L1870.25 90.5788L1572.11 175.546L1646.72 479.331L1534.96 673.706L1171.63 41.8362C1134.38 -22.9556 1181.14 -103.797 1255.88 -103.797Z" stroke="#344253" stroke-width="2"/>
<path d="M1162.94 -154L1889.07 -154L1777.31 40.3759L1479.16 125.343L1553.78 429.128L1442.01 623.503L1078.68 -8.36667C1041.43 -73.1585 1088.2 -154 1162.94 -154Z" stroke="#344253" stroke-width="2"/>
<path d="M2361.67 740.932L1998.61 112.079L1886.15 306.059L1961.64 606.743L1661.25 694.02L1548.8 888L2277.68 886.714C2352.42 886.582 2399.04 805.658 2361.67 740.932Z" stroke="#344253" stroke-width="2"/>
</g>
</svg>
