<svg width="130" height="36" viewBox="0 0 130 36" fill="none" xmlns="http://www.w3.org/2000/svg">
<path d="M53.407 9.36937L52.2972 11.3514C50.9009 9.83784 49.0034 9.00901 46.8554 9.00901C40.2679 9.00901 35.7928 13.0811 35.7928 19.6757C35.7928 24.4324 39.4087 28.4685 44.9937 28.4685C47.464 28.4685 49.4331 27.6036 50.9725 26.1622L51.6885 28.1081H55.018L56.9871 9.36937H53.407ZM45.7097 23.5676C43.2752 23.5676 41.7 21.8018 41.7 19.1712C41.7 16.1802 43.9913 13.9099 46.7122 13.9099C48.359 13.9099 49.9701 14.9189 50.5071 16.2883L50.0059 21.1892C49.2182 22.5586 47.464 23.5676 45.7097 23.5676Z" fill="#344253"/>
<path d="M72.5313 9.00901C69.6314 9.00901 67.6623 9.58559 65.5858 10.8108L66.7315 0H61.2181L58.2824 28.1081H63.9748L65.2636 15.9279C66.7673 14.955 68.5573 14.0541 70.0968 14.0541C72.0301 14.0541 72.7461 15.2793 72.5671 17.1171L71.4214 28.1081H77.1496L78.3311 16.8288C78.7607 12.5766 76.3978 9.00901 72.5313 9.00901Z" fill="#344253"/>
<path d="M94.3499 9.00901C91.3068 9.00901 89.1229 9.83784 86.6168 11.3874L86.0082 9.36937H82.2133L80.2442 28.1081H85.9366L87.2255 15.9279C88.7291 14.955 90.5192 14.0541 92.0586 14.0541C93.9203 14.0541 94.7079 15.3514 94.5289 17.1171L93.3833 28.1081H99.1115L100.293 16.8288C100.758 12.4324 98.2522 9.00901 94.3499 9.00901Z" fill="#344253"/>
<path d="M119.856 9.36937L118.639 11.3874C117.243 9.87387 115.345 9.00901 113.09 9.00901C106.287 9.00901 102.027 13.1892 102.027 19.2432C102.027 24.3964 105.929 28.1081 111.264 28.1081C113.269 28.1081 114.915 27.6036 116.24 26.7027L116.133 27.6396C115.918 29.7297 113.985 31.4595 111.371 31.4595C109.259 31.4595 107.684 30.5586 107.397 29.2613H102.134C102.564 33.1892 106.073 36 110.906 36C117.099 36 120.787 32.9369 121.324 27.6396L123.221 9.36937H119.856ZM111.908 23.2072C109.474 23.2072 107.934 21.6216 107.934 18.9189C107.934 16.1802 110.19 13.9099 112.946 13.9099C114.629 13.9099 116.276 14.955 116.777 16.3964L116.348 20.6847C115.56 22.1261 113.698 23.2072 111.908 23.2072Z" fill="#344253"/>
<path opacity="0.7" d="M30.7253 3.72992L10.7864 3.72992L13.8554 9.06727L22.0421 11.4004L19.9933 19.742L23.0623 25.0793L33.0388 7.72885C34.0618 5.94974 32.7776 3.72992 30.7253 3.72992Z" fill="url(#paint0_linear_1_4)"/>
<path d="M33.4834 1.58679L13.5444 1.58679L16.6134 6.92414L24.8001 9.25724L22.7514 17.5988L25.8203 22.9362L35.7969 5.58572C36.8198 3.80661 35.5356 1.58679 33.4834 1.58679Z" fill="url(#paint1_linear_1_4)"/>
<path d="M0.361372 26.9248L10.3308 9.65723L13.4186 14.9837L11.3458 23.2402L19.5942 25.6367L22.682 30.9632L2.6678 30.9279C0.615551 30.9242 -0.664755 28.7022 0.361372 26.9248Z" fill="#344253"/>
<path d="M126.017 1.71423H123.295L123.221 2.45924H124.128L123.823 5.57138H124.681L124.986 2.45924H125.943L126.017 1.71423Z" fill="#344253"/>
<path d="M129.325 1.71423L127.94 3.48958L126.949 1.71423H126.303L125.923 5.57138H126.687L126.934 3.06688L127.703 4.44594H128.038L129.069 3.09329L128.827 5.57138H129.592L129.971 1.71423H129.325Z" fill="#344253"/>
<defs>
<linearGradient id="paint0_linear_1_4" x1="33.0529" y1="5.09278" x2="16.9055" y2="14.4155" gradientUnits="userSpaceOnUse">
<stop stop-color="#6575FF"/>
<stop offset="1" stop-color="#6575FF"/>
</linearGradient>
<linearGradient id="paint1_linear_1_4" x1="35.811" y1="2.94965" x2="19.6636" y2="12.2724" gradientUnits="userSpaceOnUse">
<stop stop-color="#6575FF"/>
<stop offset="1" stop-color="#6575FF"/>
</linearGradient>
</defs>
</svg>
